Coordinates
version=1
nRows=16
nColumns=42
inDegrees=yes

Units are S.I. units (second, meters, Newtons, ...)
If the header above contains a line with 'inDegrees', this indicates whether rotational values are in degrees (yes) or radians (no).

endheader
time	pelvis_tilt	pelvis_list	pelvis_rotation	pelvis_tx	pelvis_ty	pelvis_tz	hip_flexion_r	hip_adduction_r	hip_rotation_r	knee_angle_r	knee_adduction_r	knee_angle_r_beta	ankle_angle_r	subtalar_angle_r	mtp_angle_r	hip_flexion_l	hip_adduction_l	hip_rotation_l	knee_angle_l	knee_adduction_l	knee_angle_l_beta	ankle_angle_l	subtalar_angle_l	mtp_angle_l	lumbar_extension	lumbar_bending	lumbar_rotation	arm_flex_r	arm_add_r	arm_rot_r	elbow_flex_r	pro_sup_r	wrist_flex_r	wrist_dev_r	arm_flex_l	arm_add_l	arm_rot_l	elbow_flex_l	pro_sup_l	wrist_flex_l	wrist_dev_l
      2.43000000	      9.38894891	      3.40941733	     -2.56840089	      1.65703959	      0.85885693	     -0.17483621	     16.22159582	     -5.96748593	      1.84082742	     16.28176266	     -2.62645147	      0.28417037	     14.17480152	     10.30953085	     -7.50014361	    -29.32258784	      4.61933093	    -16.22483211	      6.19531729	      6.05248714	      0.10812868	     19.54581475	     16.87237381	     -7.50014361	    -20.26780798	     -5.43220310	     -4.73988230	     -6.89113241	     -1.97494199	    -29.62906201	     31.85224326	     90.00000001	      0.00000000	      0.00000000	      1.86741326	     -6.89393908	     -5.25861598	     48.31835679	     90.00000001	      0.00000000	      0.00000000
      2.44000000	      9.03293364	      3.47523414	     -2.47144066	      1.66991486	      0.85691302	     -0.17355795	     16.82321321	     -5.82623346	      2.14760226	     16.46638683	     -2.62817448	      0.28739267	     14.08542073	     10.33411013	     -7.50014259	    -29.40476453	      4.49543217	    -15.86787622	      7.01656639	      5.73039904	      0.12246219	     19.41769920	     16.86428049	     -7.50014259	    -19.68599443	     -5.43972534	     -4.79849508	     -7.03717473	     -1.96516755	    -29.65234492	     31.79118925	     90.00000001	      0.00000000	      0.00000000	      1.86293298	     -6.80292215	     -5.24382809	     48.26937550	     90.00000001	      0.00000000	      0.00000000
      2.45000000	      8.82049572	      3.49959917	     -2.42197667	      1.68261466	      0.85522619	     -0.17194987	     17.29430926	     -5.54709406	      2.63101777	     17.23812138	     -2.68561110	      0.30086197	     14.14282325	     10.09942535	     -7.50014103	    -29.48934514	      4.28315174	    -15.63259382	      8.15714632	      5.43249039	      0.14236906	     19.25551932	     16.76768420	     -7.50014103	    -19.30616821	     -5.45434451	     -4.82270493	     -7.02039916	     -1.93464136	    -29.71249291	     31.56537225	     90.00000001	      0.00000000	      0.00000000	      2.00302840	     -6.73063402	     -5.27406799	     47.93594373	     90.00000001	      0.00000000	      0.00000000
      2.46000000	      8.57614331	      3.41007222	     -2.43023646	      1.69584176	      0.85357095	     -0.17015948	     17.83418314	     -5.14397924	      2.69368676	     18.58721676	     -2.64312166	      0.32440813	     14.20489535	      9.32333724	     -7.50013879	    -29.51257865	      3.94376820	    -15.83699526	      9.44583682	      5.15274651	      0.16486095	     18.98821746	     16.58386986	     -7.50013879	    -18.80372521	     -5.38297030	     -4.72691315	     -7.04718160	     -1.92315186	    -29.87440034	     31.31322956	     90.00000001	      0.00000000	      0.00000000	      2.05208639	     -6.60976724	     -5.38094522	     47.49757084	     90.00000001	      0.00000000	      0.00000000
      2.47000000	      8.31110164	      3.16906885	     -2.38559611	      1.70928794	      0.85203080	     -0.16836175	     18.29406577	     -4.58020663	      2.63159740	     20.13522702	     -2.63531117	      0.35142601	     14.06862436	      8.61075311	     -7.50013620	    -29.53929402	      3.45290199	    -16.04053531	     10.65713004	      4.82208074	      0.18600201	     18.57347245	     16.57946638	     -7.50013620	    -18.29786451	     -5.11963218	     -4.65068728	     -7.10593536	     -1.89803707	    -30.07654320	     31.24929517	     90.00000001	      0.00000000	      0.00000000	      1.98976717	     -6.46863094	     -5.53125519	     47.20374292	     90.00000001	      0.00000000	      0.00000000
      2.48000000	      8.06912910	      2.81270796	     -2.31729433	      1.72291642	      0.85068546	     -0.16648763	     18.63690699	     -3.87891236	      2.46393529	     21.80178159	     -2.71934417	      0.38051287	     13.82214316	      8.22001128	     -7.50013277	    -29.55089545	      2.83986295	    -16.36858445	     11.93915459	      4.42534473	      0.20837756	     18.05879216	     16.74286119	     -7.50013277	    -17.82515197	     -4.72750804	     -4.60274773	     -7.14803256	     -1.88509139	    -30.25926148	     31.27821612	     90.00000001	      0.00000000	      0.00000000	      1.85487359	     -6.33765376	     -5.71887397	     46.92692035	     90.00000001	      0.00000000	      0.00000000
      2.49000000	      7.89707797	      2.37711179	     -2.25102764	      1.73661884	      0.84964532	     -0.16440052	     18.86731391	     -3.07175508	      2.14267731	     23.58022625	     -2.95942181	      0.41155259	     13.52309112	      8.29391095	     -7.50012839	    -29.56679755	      2.09426203	    -16.82183461	     13.35409773	      4.07137097	      0.23307297	     17.32698297	     16.98675958	     -7.50012839	    -17.44991674	     -4.28000733	     -4.54397730	     -7.19026406	     -1.84490111	    -30.32363549	     31.36126714	     90.00000001	      0.00000000	      0.00000000	      1.69058070	     -6.21599072	     -5.93986322	     46.65363932	     90.00000001	      0.00000000	      0.00000000
      2.50000000	      7.77426051	      1.98172102	     -2.22731922	      1.75038140	      0.84891849	     -0.16245449	     19.01419978	     -2.35381265	      2.01314980	     25.39915844	     -3.12166732	      0.44329894	     13.20637344	      8.33205134	     -7.50012581	    -29.57100590	      1.50743731	    -17.23363602	     14.78316978	      3.54512768	      0.25801499	     16.14782355	     16.78112532	     -7.50012581	    -17.13933493	     -3.85808428	     -4.48423350	     -7.18845517	     -1.86879307	    -30.27519909	     31.43601455	     90.00000001	      0.00000000	      0.00000000	      1.46324504	     -6.11793940	     -6.11236016	     46.38154126	     90.00000001	      0.00000000	      0.00000000
      2.51000000	      7.70912790	      1.50977446	     -2.20253340	      1.76408586	      0.84856068	     -0.16042725	     19.04506633	     -1.56796079	      1.95054466	     27.19716017	     -3.30097461	      0.47467999	     12.94896973	      8.47481897	     -7.50012357	    -29.56623398	      0.82906342	    -17.57206703	     16.26312232	      3.07697218	      0.28384503	     14.79778083	     16.50508295	     -7.50012357	    -16.93849303	     -3.36472613	     -4.44012049	     -7.15340556	     -1.87779746	    -30.17479137	     31.56081224	     90.00000001	      0.00000000	      0.00000000	      1.24335583	     -6.00518169	     -6.33699079	     46.13731611	     90.00000001	      0.00000000	      0.00000000
      2.52000000	      7.75531196	      0.66309192	     -2.13311231	      1.77802623	      0.84857976	     -0.15818248	     18.87705916	     -0.35326109	      1.54814959	     28.94140935	     -3.68206746	      0.50512288	     12.76250568	      8.93855973	     -7.50011843	    -29.55147144	     -0.30536670	    -18.27983342	     18.03284992	      2.57491388	      0.31473260	     13.37802776	     16.49398357	     -7.50011843	    -16.86659548	     -2.48128651	     -4.41021053	     -7.13466015	     -1.94735583	    -29.81990511	     31.81285287	     90.00000001	      0.00000000	      0.00000000	      0.93213591	     -5.83605990	     -6.84133146	     45.86367293	     90.00000001	      0.00000000	      0.00000000
      2.53000000	      7.90191683	      0.08348325	     -2.09029678	      1.79185348	      0.84901595	     -0.15617639	     18.53411803	      0.50188184	      1.91176967	     30.63416150	     -3.68181324	      0.53466698	     12.81926376	      8.53791052	     -7.50011538	    -29.51538479	     -1.04669216	    -18.73249878	     19.81349650	      1.88320941	      0.34581075	     11.39040613	     15.94161856	     -7.50011538	    -16.92921932	     -1.88176582	     -4.37790801	     -7.06714676	     -1.97944127	    -29.56786187	     31.96964168	     90.00000001	      0.00000000	      0.00000000	      0.64476263	     -5.71309258	     -7.13092220	     45.66555861	     90.00000001	      0.00000000	      0.00000000
      2.54000000	      8.16931820	     -0.52649220	     -2.02809152	      1.80568604	      0.84985716	     -0.15425871	     17.93076461	      1.35788656	      2.47809743	     32.14238997	     -3.52952319	      0.56099053	     13.15567668	      7.84397005	     -7.50011335	    -29.44838141	     -1.80746803	    -19.04705165	     21.78387913	      1.15688682	      0.38020041	      9.15106456	     15.09265779	     -7.50011335	    -17.14057740	     -1.24836708	     -4.40218058	     -6.94111497	     -2.01621263	    -29.32010877	     32.18508844	     90.00000001	      0.00000000	      0.00000000	      0.31540782	     -5.60233786	     -7.44533658	     45.45913124	     90.00000001	      0.00000000	      0.00000000
      2.55000000	      8.51746816	     -1.58453723	     -1.96896539	      1.81936286	      0.85117823	     -0.15194446	     16.85486350	      2.84896708	      4.00183690	     33.00585878	     -3.09791473	      0.57606091	     13.16327740	      5.48744386	     -7.50010737	    -29.35418484	     -3.14179232	    -19.23414361	     24.04071600	      0.74719649	      0.41958965	      6.86248340	     13.55967543	     -7.50010737	    -17.48624942	     -0.18667095	     -4.30569854	     -6.87805893	     -2.14502885	    -28.48162787	     32.54540019	     90.00000001	      0.00000000	      0.00000000	      0.01672655	     -5.41750719	     -8.05661008	     45.20132407	     90.00000001	      0.00000000	      0.00000000
      2.56000000	      8.97621087	     -2.39077348	     -1.89854884	      1.83286328	      0.85276326	     -0.14999386	     15.60533880	      3.94973610	      5.38979978	     33.72331480	     -2.53061359	      0.58858288	     13.50082458	      3.39073262	     -7.50010050	    -29.15045762	     -4.12027093	    -19.19456415	     26.48825100	      0.12408301	      0.46230719	      4.40303362	     11.89095444	     -7.50010050	    -17.96944950	      0.62506155	     -4.27346769	     -6.73721654	     -2.23537100	    -27.84936199	     32.94985937	     90.00000001	      0.00000000	      0.00000000	     -0.29038524	     -5.29913765	     -8.43263500	     44.99727576	     90.00000001	      0.00000000	      0.00000000
      2.57000000	      9.42102044	     -3.16141582	     -1.78293790	      1.84623671	      0.85445001	     -0.14808842	     14.26841064	      5.00426504	      6.44261256	     34.20365061	     -2.13849706	      0.59696632	     13.91428259	      1.88775782	     -7.50009427	    -28.71260469	     -5.10314692	    -19.01297817	     29.23273915	     -0.51586630	      0.51020755	      1.99022076	      9.94749690	     -7.50009427	    -18.44281451	      1.39161887	     -4.26915916	     -6.58653418	     -2.28597351	    -27.32642033	     33.41103098	     90.00000001	      0.00000000	      0.00000000	     -0.61186596	     -5.20784868	     -8.80483847	     44.82783604	     90.00000001	      0.00000000	      0.00000000
      2.58000000	      9.68731461	     -3.70185424	     -1.64834858	      1.85918063	      0.85593676	     -0.14642944	     13.13383258	      5.73172136	      6.90147703	     34.56285223	     -1.92289974	      0.60323557	     14.64240501	      1.35974083	     -7.50009214	    -27.70298417	     -5.86204656	    -18.92721762	     32.45925875	     -1.45766870	      0.56652094	     -0.15255434	      8.29246890	     -7.50009214	    -18.75507729	      1.93274046	     -4.32409190	     -6.36873196	     -2.27634295	    -27.06592547	     33.90201170	     90.00000001	      0.00000000	      0.00000000	     -0.92620042	     -5.16741843	     -9.06946923	     44.69376753	     90.00000001	      0.00000000	      0.00000000
